# xmcd
#
# Track frame offsets:
#	150
#	17458
#	31147
#	46363
#	62386
#	77662
#	91250
#	110178
#	124506
#	141501
#	157428
#	169891
#	183624
#
# Disc length: 2680 seconds
#
# Revision: 1
# Processed by: cddbd v1.5.1PL0 Copyright (c) Steve Scherf et al.
# Submitted via: audiograbber 1.80
#
DISCID=ae0a760d
DTITLE=Michelle - Herzklopfen
DYEAR=1900
DGENRE=
TTITLE0=Herzklopfen
TTITLE1=Dieses 100000 Volt-Gefühl
TTITLE2=Eine Reise in die Zärtlichkeit
TTITLE3=Er nannte sie "Baby Jane"
TTITLE4=Prinz Eisenherz
TTITLE5=Erste Sehnsucht
TTITLE6=Kleine Seelenfeuer
TTITLE7=Wilde Träume
TTITLE8=Schmetterlinge sind frei
TTITLE9=Sei zärtlich, wenn du kommst (leise wenn du gehst)
TTITLE10=Traumtänzerball
TTITLE11=Silbermond und Sternenfeuer
TTITLE12=Und heut' Nacht will ich tanzen
EXTD=
EXTT0=
EXTT1=
EXTT2=
EXTT3=
EXTT4=
EXTT5=
EXTT6=
EXTT7=
EXTT8=
EXTT9=
EXTT10=
EXTT11=
EXTT12=
PLAYORDER=
